<svg width="201" height="50" viewBox="0 0 201 50" fill="none" xmlns="http://www.w3.org/2000/svg">
<path d="M65.392 15.8809H68.008L75.328 32.8729H71.872L70.288 28.9849H62.92L61.384 32.8729H58L65.392 15.8809ZM69.232 26.3929L66.616 19.4809L63.952 26.3929H69.232ZM86.0723 31.1449H86.0243C85.6083 31.8489 85.0483 32.3609 84.3443 32.6809C83.6403 33.0009 82.8803 33.1609 82.0643 33.1609C81.1683 33.1609 80.3683 33.0089 79.6643 32.7049C78.9763 32.3849 78.3843 31.9529 77.8883 31.4089C77.3923 30.8649 77.0163 30.2249 76.7603 29.4889C76.5043 28.7529 76.3763 27.9609 76.3763 27.1129C76.3763 26.2649 76.5123 25.4729 76.7843 24.7369C77.0563 24.0009 77.4323 23.3609 77.9123 22.8169C78.4083 22.2729 79.0003 21.8489 79.6883 21.5449C80.3763 21.2249 81.1283 21.0649 81.9443 21.0649C82.4883 21.0649 82.9683 21.1209 83.3843 21.2329C83.8003 21.3449 84.1683 21.4889 84.4883 21.6649C84.8083 21.8409 85.0803 22.0329 85.3043 22.2409C85.5283 22.4329 85.7123 22.6249 85.8563 22.8169H85.9283V14.7289H88.8083V32.8729H86.0723V31.1449ZM79.2563 27.1129C79.2563 27.5609 79.3283 27.9929 79.4723 28.4089C79.6323 28.8249 79.8563 29.1929 80.1443 29.5129C80.4483 29.8329 80.8083 30.0889 81.2243 30.2809C81.6403 30.4729 82.1123 30.5689 82.6403 30.5689C83.1683 30.5689 83.6403 30.4729 84.0563 30.2809C84.4723 30.0889 84.8243 29.8329 85.1123 29.5129C85.4163 29.1929 85.6403 28.8249 85.7843 28.4089C85.9443 27.9929 86.0243 27.5609 86.0243 27.1129C86.0243 26.6649 85.9443 26.2329 85.7843 25.8169C85.6403 25.4009 85.4163 25.0329 85.1123 24.7129C84.8243 24.3929 84.4723 24.1369 84.0563 23.9449C83.6403 23.7529 83.1683 23.6569 82.6403 23.6569C82.1123 23.6569 81.6403 23.7529 81.2243 23.9449C80.8083 24.1369 80.4483 24.3929 80.1443 24.7129C79.8563 25.0329 79.6323 25.4009 79.4723 25.8169C79.3283 26.2329 79.2563 26.6649 79.2563 27.1129ZM101.19 31.1449H101.142C100.726 31.8489 100.166 32.3609 99.4615 32.6809C98.7575 33.0009 97.9975 33.1609 97.1815 33.1609C96.2855 33.1609 95.4855 33.0089 94.7815 32.7049C94.0935 32.3849 93.5015 31.9529 93.0055 31.4089C92.5095 30.8649 92.1335 30.2249 91.8775 29.4889C91.6215 28.7529 91.4935 27.9609 91.4935 27.1129C91.4935 26.2649 91.6295 25.4729 91.9015 24.7369C92.1735 24.0009 92.5495 23.3609 93.0295 22.8169C93.5255 22.2729 94.1175 21.8489 94.8055 21.5449C95.4935 21.2249 96.2455 21.0649 97.0615 21.0649C97.6055 21.0649 98.0855 21.1209 98.5015 21.2329C98.9175 21.3449 99.2855 21.4889 99.6055 21.6649C99.9255 21.8409 100.198 22.0329 100.422 22.2409C100.646 22.4329 100.83 22.6249 100.974 22.8169H101.046V14.7289H103.926V32.8729H101.19V31.1449ZM94.3735 27.1129C94.3735 27.5609 94.4455 27.9929 94.5895 28.4089C94.7495 28.8249 94.9735 29.1929 95.2615 29.5129C95.5655 29.8329 95.9255 30.0889 96.3415 30.2809C96.7575 30.4729 97.2295 30.5689 97.7575 30.5689C98.2855 30.5689 98.7575 30.4729 99.1735 30.2809C99.5895 30.0889 99.9415 29.8329 100.23 29.5129C100.534 29.1929 100.758 28.8249 100.902 28.4089C101.062 27.9929 101.142 27.5609 101.142 27.1129C101.142 26.6649 101.062 26.2329 100.902 25.8169C100.758 25.4009 100.534 25.0329 100.23 24.7129C99.9415 24.3929 99.5895 24.1369 99.1735 23.9449C98.7575 23.7529 98.2855 23.6569 97.7575 23.6569C97.2295 23.6569 96.7575 23.7529 96.3415 23.9449C95.9255 24.1369 95.5655 24.3929 95.2615 24.7129C94.9735 25.0329 94.7495 25.4009 94.5895 25.8169C94.4455 26.2329 94.3735 26.6649 94.3735 27.1129ZM114.552 15.8809H120.264C121.08 15.8809 121.864 15.9609 122.616 16.1209C123.384 16.2809 124.056 16.5529 124.632 16.9369C125.208 17.3049 125.664 17.8089 126 18.4489C126.352 19.0729 126.528 19.8569 126.528 20.8009C126.528 21.8729 126.344 22.7369 125.976 23.3929C125.608 24.0489 125.112 24.5609 124.488 24.9289C123.864 25.2809 123.136 25.5209 122.304 25.6489C121.488 25.7769 120.632 25.8409 119.736 25.8409H117.576V32.8729H114.552V15.8809ZM119.4 23.2489C119.832 23.2489 120.28 23.2329 120.744 23.2009C121.208 23.1689 121.632 23.0729 122.016 22.9129C122.416 22.7529 122.736 22.5129 122.976 22.1929C123.232 21.8729 123.36 21.4249 123.36 20.8489C123.36 20.3209 123.248 19.9049 123.024 19.6009C122.8 19.2809 122.512 19.0409 122.16 18.8809C121.808 18.7049 121.416 18.5929 120.984 18.5449C120.552 18.4969 120.136 18.4729 119.736 18.4729H117.576V23.2489H119.4ZM128.96 21.3529H131.84V23.1769H131.888C132.208 22.5049 132.664 21.9849 133.256 21.6169C133.848 21.2489 134.528 21.0649 135.296 21.0649C135.472 21.0649 135.64 21.0809 135.8 21.1129C135.976 21.1449 136.152 21.1849 136.328 21.2329V24.0169C136.088 23.9529 135.848 23.9049 135.608 23.8729C135.384 23.8249 135.16 23.8009 134.936 23.8009C134.264 23.8009 133.72 23.9289 133.304 24.1849C132.904 24.4249 132.592 24.7049 132.368 25.0249C132.16 25.3449 132.016 25.6649 131.936 25.9849C131.872 26.3049 131.84 26.5449 131.84 26.7049V32.8729H128.96V21.3529ZM137.29 27.1129C137.29 26.2009 137.45 25.3769 137.77 24.6409C138.106 23.8889 138.554 23.2489 139.114 22.7209C139.674 22.1929 140.338 21.7849 141.106 21.4969C141.874 21.2089 142.69 21.0649 143.554 21.0649C144.418 21.0649 145.234 21.2089 146.002 21.4969C146.77 21.7849 147.434 22.1929 147.994 22.7209C148.554 23.2489 148.994 23.8889 149.314 24.6409C149.65 25.3769 149.818 26.2009 149.818 27.1129C149.818 28.0249 149.65 28.8569 149.314 29.6089C148.994 30.3449 148.554 30.9769 147.994 31.5049C147.434 32.0329 146.77 32.4409 146.002 32.7289C145.234 33.0169 144.418 33.1609 143.554 33.1609C142.69 33.1609 141.874 33.0169 141.106 32.7289C140.338 32.4409 139.674 32.0329 139.114 31.5049C138.554 30.9769 138.106 30.3449 137.77 29.6089C137.45 28.8569 137.29 28.0249 137.29 27.1129ZM140.17 27.1129C140.17 27.5609 140.242 27.9929 140.386 28.4089C140.546 28.8249 140.77 29.1929 141.058 29.5129C141.362 29.8329 141.722 30.0889 142.138 30.2809C142.554 30.4729 143.026 30.5689 143.554 30.5689C144.082 30.5689 144.554 30.4729 144.97 30.2809C145.386 30.0889 145.738 29.8329 146.026 29.5129C146.33 29.1929 146.554 28.8249 146.698 28.4089C146.858 27.9929 146.938 27.5609 146.938 27.1129C146.938 26.6649 146.858 26.2329 146.698 25.8169C146.554 25.4009 146.33 25.0329 146.026 24.7129C145.738 24.3929 145.386 24.1369 144.97 23.9449C144.554 23.7529 144.082 23.6569 143.554 23.6569C143.026 23.6569 142.554 23.7529 142.138 23.9449C141.722 24.1369 141.362 24.3929 141.058 24.7129C140.77 25.0329 140.546 25.4009 140.386 25.8169C140.242 26.2329 140.17 26.6649 140.17 27.1129ZM161.635 31.1449H161.587C161.171 31.8489 160.611 32.3609 159.907 32.6809C159.203 33.0009 158.443 33.1609 157.627 33.1609C156.731 33.1609 155.931 33.0089 155.227 32.7049C154.539 32.3849 153.947 31.9529 153.451 31.4089C152.955 30.8649 152.579 30.2249 152.323 29.4889C152.067 28.7529 151.939 27.9609 151.939 27.1129C151.939 26.2649 152.075 25.4729 152.347 24.7369C152.619 24.0009 152.995 23.3609 153.475 22.8169C153.971 22.2729 154.563 21.8489 155.251 21.5449C155.939 21.2249 156.691 21.0649 157.507 21.0649C158.051 21.0649 158.531 21.1209 158.947 21.2329C159.363 21.3449 159.731 21.4889 160.051 21.6649C160.371 21.8409 160.643 22.0329 160.867 22.2409C161.091 22.4329 161.275 22.6249 161.419 22.8169H161.491V14.7289H164.371V32.8729H161.635V31.1449ZM154.819 27.1129C154.819 27.5609 154.891 27.9929 155.035 28.4089C155.195 28.8249 155.419 29.1929 155.707 29.5129C156.011 29.8329 156.371 30.0889 156.787 30.2809C157.203 30.4729 157.675 30.5689 158.203 30.5689C158.731 30.5689 159.203 30.4729 159.619 30.2809C160.035 30.0889 160.387 29.8329 160.675 29.5129C160.979 29.1929 161.203 28.8249 161.347 28.4089C161.507 27.9929 161.587 27.5609 161.587 27.1129C161.587 26.6649 161.507 26.2329 161.347 25.8169C161.203 25.4009 160.979 25.0329 160.675 24.7129C160.387 24.3929 160.035 24.1369 159.619 23.9449C159.203 23.7529 158.731 23.6569 158.203 23.6569C157.675 23.6569 157.203 23.7529 156.787 23.9449C156.371 24.1369 156.011 24.3929 155.707 24.7129C155.419 25.0329 155.195 25.4009 155.035 25.8169C154.891 26.2329 154.819 26.6649 154.819 27.1129ZM178.144 32.8729H175.408V31.0249H175.36C175.088 31.6009 174.672 32.1049 174.112 32.5369C173.552 32.9529 172.792 33.1609 171.832 33.1609C171.064 33.1609 170.408 33.0409 169.864 32.8009C169.336 32.5449 168.904 32.2089 168.568 31.7929C168.232 31.3609 167.992 30.8729 167.848 30.3289C167.704 29.7849 167.632 29.2169 167.632 28.6249V21.3529H170.512V27.1849C170.512 27.5049 170.528 27.8649 170.56 28.2649C170.592 28.6489 170.672 29.0169 170.8 29.3689C170.944 29.7049 171.152 29.9929 171.424 30.2329C171.712 30.4569 172.112 30.5689 172.624 30.5689C173.104 30.5689 173.504 30.4889 173.824 30.3289C174.16 30.1689 174.432 29.9529 174.64 29.6809C174.864 29.4089 175.024 29.0969 175.12 28.7449C175.216 28.3929 175.264 28.0249 175.264 27.6409V21.3529H178.144V32.8729ZM189.285 24.8089C188.949 24.4569 188.597 24.1769 188.229 23.9689C187.861 23.7609 187.485 23.6569 187.101 23.6569C186.573 23.6569 186.101 23.7529 185.685 23.9449C185.269 24.1369 184.909 24.3929 184.605 24.7129C184.317 25.0329 184.093 25.4009 183.933 25.8169C183.789 26.2329 183.717 26.6649 183.717 27.1129C183.717 27.5609 183.789 27.9929 183.933 28.4089C184.093 28.8249 184.317 29.1929 184.605 29.5129C184.909 29.8329 185.269 30.0889 185.685 30.2809C186.101 30.4729 186.573 30.5689 187.101 30.5689C187.549 30.5689 187.965 30.4809 188.349 30.3049C188.733 30.1129 189.061 29.8409 189.333 29.4889L191.253 31.5529C190.965 31.8409 190.629 32.0889 190.245 32.2969C189.877 32.5049 189.501 32.6729 189.117 32.8009C188.733 32.9289 188.365 33.0169 188.013 33.0649C187.661 33.1289 187.357 33.1609 187.101 33.1609C186.237 33.1609 185.421 33.0169 184.653 32.7289C183.885 32.4409 183.221 32.0329 182.661 31.5049C182.101 30.9769 181.653 30.3449 181.317 29.6089C180.997 28.8569 180.837 28.0249 180.837 27.1129C180.837 26.2009 180.997 25.3769 181.317 24.6409C181.653 23.8889 182.101 23.2489 182.661 22.7209C183.221 22.1929 183.885 21.7849 184.653 21.4969C185.421 21.2089 186.237 21.0649 187.101 21.0649C187.837 21.0649 188.573 21.2089 189.309 21.4969C190.061 21.7689 190.717 22.2089 191.277 22.8169L189.285 24.8089ZM191.647 23.8009V21.3529H194.023V18.0169H196.903V21.3529H200.071V23.8009H196.903V28.8409C196.903 29.4169 197.007 29.8729 197.215 30.2089C197.439 30.5449 197.871 30.7129 198.511 30.7129C198.767 30.7129 199.047 30.6889 199.351 30.6409C199.655 30.5769 199.895 30.4809 200.071 30.3529V32.7769C199.767 32.9209 199.391 33.0169 198.943 33.0649C198.511 33.1289 198.127 33.1609 197.791 33.1609C197.023 33.1609 196.391 33.0729 195.895 32.8969C195.415 32.7369 195.031 32.4889 194.743 32.1529C194.471 31.8009 194.279 31.3689 194.167 30.8569C194.071 30.3449 194.023 29.7529 194.023 29.0809V23.8009H191.647Z" fill="black"/>
<path d="M35.672 26.3018C38.162 25.7625 40 23.9356 40 21.7699C40 19.753 38.4062 18.0295 36.176 17.3664C35.5615 11.1589 29.4954 6.16447 21.8293 5.47131V3.75969C21.8293 1.68657 19.7269 0 17.1428 0H5.60157C4.5913 0 3.77226 0.657058 3.77226 1.46752C3.77226 2.27798 4.5913 2.93504 5.60157 2.93504H17.1428C17.7096 2.93504 18.1707 3.30495 18.1707 3.75969V5.47131C10.5046 6.16447 4.43862 11.1589 3.82409 17.3664C1.59393 18.0295 0 19.753 0 21.7699C0 23.9401 1.8454 25.7702 4.34313 26.3053L7.65819 48.7055C7.76746 49.4439 8.54784 50 9.47481 50H30.828C31.762 50 32.546 49.4355 32.6467 48.6906L34.992 31.3337C34.9922 31.3324 34.9923 31.3309 34.9926 31.3295L35.672 26.3018ZM8.051 26.4642H18.1707V29.7139H8.53198L8.051 26.4642ZM21.8293 26.4642H31.97L31.5308 29.7139H21.8292V26.4642H21.8293ZM34.1484 23.5292H21.8293V20.0105H34.1484C35.3577 20.0105 36.3414 20.7997 36.3414 21.7698C36.3414 22.7399 35.3576 23.5292 34.1484 23.5292ZM32.4602 17.0755H21.8293V8.43012C27.3555 9.07926 31.7255 12.6234 32.4602 17.0755ZM18.1707 8.43012V17.0755H7.53989C8.27466 12.6234 12.6445 9.07926 18.1707 8.43012ZM5.85169 20.0105H18.1708V23.5292H5.85169C4.6424 23.5292 3.65873 22.74 3.65873 21.7699C3.65873 20.7998 4.6424 20.0105 5.85169 20.0105ZM29.1864 47.065H11.0998L8.96638 32.6488H18.1708V42.7575C18.1708 43.568 18.9899 44.225 20.0001 44.225C21.0104 44.225 21.8294 43.568 21.8294 42.7575V32.6489H31.1345L29.1864 47.065Z" fill="#BD0707"/>
<path d="M25.5953 37.4148C24.7761 37.6042 24.3032 38.2905 24.5392 38.9478C24.7752 39.605 25.6307 39.9843 26.4501 39.795C27.2694 39.6057 27.7422 38.9194 27.5062 38.2621C27.2701 37.6048 26.4146 37.2255 25.5953 37.4148Z" fill="#BD0707"/>
<path d="M13.4016 34.9372C12.5823 35.1265 12.1095 35.8128 12.3455 36.4701C12.5815 37.1274 13.437 37.5067 14.2564 37.3174C15.0758 37.1281 15.5485 36.4418 15.3125 35.7844C15.0764 35.1272 14.2209 34.7478 13.4016 34.9372Z" fill="#BD0707"/>
</svg>
