<svg width="190" height="40" viewBox="0 0 190 40" fill="none" xmlns="http://www.w3.org/2000/svg">
<path d="M66.392 10.881H69.008L76.328 27.873H72.872L71.288 23.985H63.92L62.384 27.873H59L66.392 10.881ZM70.232 21.393L67.616 14.481L64.952 21.393H70.232ZM87.0723 26.145H87.0243C86.6083 26.849 86.0483 27.361 85.3443 27.681C84.6403 28.001 83.8803 28.161 83.0643 28.161C82.1683 28.161 81.3683 28.009 80.6643 27.705C79.9763 27.385 79.3843 26.953 78.8883 26.409C78.3923 25.865 78.0163 25.225 77.7603 24.489C77.5043 23.753 77.3763 22.961 77.3763 22.113C77.3763 21.265 77.5123 20.473 77.7843 19.737C78.0563 19.001 78.4323 18.361 78.9123 17.817C79.4083 17.273 80.0003 16.849 80.6883 16.545C81.3763 16.225 82.1283 16.065 82.9443 16.065C83.4883 16.065 83.9683 16.121 84.3843 16.233C84.8003 16.345 85.1683 16.489 85.4883 16.665C85.8083 16.841 86.0803 17.033 86.3043 17.241C86.5283 17.433 86.7123 17.625 86.8563 17.817H86.9283V9.72905H89.8083V27.873H87.0723V26.145ZM80.2563 22.113C80.2563 22.561 80.3283 22.993 80.4723 23.409C80.6323 23.825 80.8563 24.193 81.1443 24.513C81.4483 24.833 81.8083 25.089 82.2243 25.281C82.6403 25.473 83.1123 25.569 83.6403 25.569C84.1683 25.569 84.6403 25.473 85.0563 25.281C85.4723 25.089 85.8243 24.833 86.1123 24.513C86.4163 24.193 86.6403 23.825 86.7843 23.409C86.9443 22.993 87.0243 22.561 87.0243 22.113C87.0243 21.665 86.9443 21.233 86.7843 20.817C86.6403 20.401 86.4163 20.033 86.1123 19.713C85.8243 19.393 85.4723 19.137 85.0563 18.945C84.6403 18.753 84.1683 18.657 83.6403 18.657C83.1123 18.657 82.6403 18.753 82.2243 18.945C81.8083 19.137 81.4483 19.393 81.1443 19.713C80.8563 20.033 80.6323 20.401 80.4723 20.817C80.3283 21.233 80.2563 21.665 80.2563 22.113ZM102.19 26.145H102.142C101.726 26.849 101.166 27.361 100.462 27.681C99.7575 28.001 98.9975 28.161 98.1815 28.161C97.2855 28.161 96.4855 28.009 95.7815 27.705C95.0935 27.385 94.5015 26.953 94.0055 26.409C93.5095 25.865 93.1335 25.225 92.8775 24.489C92.6215 23.753 92.4935 22.961 92.4935 22.113C92.4935 21.265 92.6295 20.473 92.9015 19.737C93.1735 19.001 93.5495 18.361 94.0295 17.817C94.5255 17.273 95.1175 16.849 95.8055 16.545C96.4935 16.225 97.2455 16.065 98.0615 16.065C98.6055 16.065 99.0855 16.121 99.5015 16.233C99.9175 16.345 100.286 16.489 100.606 16.665C100.926 16.841 101.198 17.033 101.422 17.241C101.646 17.433 101.83 17.625 101.974 17.817H102.046V9.72905H104.926V27.873H102.19V26.145ZM95.3735 22.113C95.3735 22.561 95.4455 22.993 95.5895 23.409C95.7495 23.825 95.9735 24.193 96.2615 24.513C96.5655 24.833 96.9255 25.089 97.3415 25.281C97.7575 25.473 98.2295 25.569 98.7575 25.569C99.2855 25.569 99.7575 25.473 100.174 25.281C100.59 25.089 100.942 24.833 101.23 24.513C101.534 24.193 101.758 23.825 101.902 23.409C102.062 22.993 102.142 22.561 102.142 22.113C102.142 21.665 102.062 21.233 101.902 20.817C101.758 20.401 101.534 20.033 101.23 19.713C100.942 19.393 100.59 19.137 100.174 18.945C99.7575 18.753 99.2855 18.657 98.7575 18.657C98.2295 18.657 97.7575 18.753 97.3415 18.945C96.9255 19.137 96.5655 19.393 96.2615 19.713C95.9735 20.033 95.7495 20.401 95.5895 20.817C95.4455 21.233 95.3735 21.665 95.3735 22.113ZM119.032 13.617H113.824V10.881H127.264V13.617H122.056V27.873H119.032V13.617ZM125.822 22.113C125.822 21.201 125.982 20.377 126.302 19.641C126.638 18.889 127.086 18.249 127.646 17.721C128.206 17.193 128.87 16.785 129.638 16.497C130.406 16.209 131.222 16.065 132.086 16.065C132.95 16.065 133.766 16.209 134.534 16.497C135.302 16.785 135.966 17.193 136.526 17.721C137.086 18.249 137.526 18.889 137.846 19.641C138.182 20.377 138.35 21.201 138.35 22.113C138.35 23.025 138.182 23.857 137.846 24.609C137.526 25.345 137.086 25.977 136.526 26.505C135.966 27.033 135.302 27.441 134.534 27.729C133.766 28.017 132.95 28.161 132.086 28.161C131.222 28.161 130.406 28.017 129.638 27.729C128.87 27.441 128.206 27.033 127.646 26.505C127.086 25.977 126.638 25.345 126.302 24.609C125.982 23.857 125.822 23.025 125.822 22.113ZM128.702 22.113C128.702 22.561 128.774 22.993 128.918 23.409C129.078 23.825 129.302 24.193 129.59 24.513C129.894 24.833 130.254 25.089 130.67 25.281C131.086 25.473 131.558 25.569 132.086 25.569C132.614 25.569 133.086 25.473 133.502 25.281C133.918 25.089 134.27 24.833 134.558 24.513C134.862 24.193 135.086 23.825 135.23 23.409C135.39 22.993 135.47 22.561 135.47 22.113C135.47 21.665 135.39 21.233 135.23 20.817C135.086 20.401 134.862 20.033 134.558 19.713C134.27 19.393 133.918 19.137 133.502 18.945C133.086 18.753 132.614 18.657 132.086 18.657C131.558 18.657 131.086 18.753 130.67 18.945C130.254 19.137 129.894 19.393 129.59 19.713C129.302 20.033 129.078 20.401 128.918 20.817C128.774 21.233 128.702 21.665 128.702 22.113ZM141.046 16.353H143.782V18.081H143.83C144.246 17.377 144.806 16.865 145.51 16.545C146.214 16.225 146.974 16.065 147.79 16.065C148.67 16.065 149.462 16.225 150.166 16.545C150.87 16.849 151.47 17.273 151.966 17.817C152.462 18.361 152.838 19.001 153.094 19.737C153.35 20.473 153.478 21.265 153.478 22.113C153.478 22.961 153.342 23.753 153.07 24.489C152.798 25.225 152.414 25.865 151.918 26.409C151.438 26.953 150.854 27.385 150.166 27.705C149.478 28.009 148.726 28.161 147.91 28.161C147.366 28.161 146.886 28.105 146.47 27.993C146.054 27.881 145.686 27.737 145.366 27.561C145.046 27.385 144.774 27.201 144.55 27.009C144.326 26.801 144.142 26.601 143.998 26.409H143.926V33.345H141.046V16.353ZM150.598 22.113C150.598 21.665 150.518 21.233 150.358 20.817C150.214 20.401 149.99 20.033 149.686 19.713C149.398 19.393 149.046 19.137 148.63 18.945C148.214 18.753 147.742 18.657 147.214 18.657C146.686 18.657 146.214 18.753 145.798 18.945C145.382 19.137 145.022 19.393 144.718 19.713C144.43 20.033 144.206 20.401 144.046 20.817C143.902 21.233 143.83 21.665 143.83 22.113C143.83 22.561 143.902 22.993 144.046 23.409C144.206 23.825 144.43 24.193 144.718 24.513C145.022 24.833 145.382 25.089 145.798 25.281C146.214 25.473 146.686 25.569 147.214 25.569C147.742 25.569 148.214 25.473 148.63 25.281C149.046 25.089 149.398 24.833 149.686 24.513C149.99 24.193 150.214 23.825 150.358 23.409C150.518 22.993 150.598 22.561 150.598 22.113ZM156.211 16.353H159.091V27.873H156.211V16.353ZM155.803 12.441C155.803 11.977 155.971 11.577 156.307 11.241C156.659 10.889 157.099 10.713 157.627 10.713C158.155 10.713 158.595 10.881 158.947 11.217C159.315 11.537 159.499 11.945 159.499 12.441C159.499 12.937 159.315 13.353 158.947 13.689C158.595 14.009 158.155 14.169 157.627 14.169C157.099 14.169 156.659 14.001 156.307 13.665C155.971 13.313 155.803 12.905 155.803 12.441ZM162.398 16.353H165.134V18.201H165.182C165.454 17.625 165.87 17.129 166.43 16.713C166.99 16.281 167.75 16.065 168.71 16.065C169.478 16.065 170.126 16.193 170.654 16.449C171.198 16.705 171.638 17.041 171.974 17.457C172.31 17.873 172.55 18.353 172.694 18.897C172.838 19.441 172.91 20.009 172.91 20.601V27.873H170.03V22.041C170.03 21.721 170.014 21.369 169.982 20.985C169.95 20.585 169.862 20.217 169.718 19.881C169.59 19.529 169.382 19.241 169.094 19.017C168.806 18.777 168.414 18.657 167.918 18.657C167.438 18.657 167.03 18.737 166.694 18.897C166.374 19.057 166.102 19.273 165.878 19.545C165.67 19.817 165.518 20.129 165.422 20.481C165.326 20.833 165.278 21.201 165.278 21.585V27.873H162.398V16.353ZM188.035 16.353V26.841C188.035 27.881 187.907 28.817 187.651 29.649C187.395 30.497 186.995 31.209 186.451 31.785C185.923 32.377 185.251 32.833 184.435 33.153C183.619 33.473 182.651 33.633 181.531 33.633C180.459 33.633 179.443 33.497 178.483 33.225C177.523 32.953 176.635 32.457 175.819 31.737L177.547 29.385C178.123 29.913 178.723 30.321 179.347 30.609C179.971 30.897 180.691 31.041 181.507 31.041C182.195 31.041 182.771 30.945 183.235 30.753C183.715 30.561 184.091 30.297 184.363 29.961C184.651 29.625 184.851 29.217 184.963 28.737C185.091 28.273 185.155 27.753 185.155 27.177V26.337H185.107C184.691 26.897 184.139 27.321 183.451 27.609C182.763 27.881 182.059 28.017 181.339 28.017C180.475 28.017 179.691 27.865 178.987 27.561C178.283 27.241 177.675 26.817 177.163 26.289C176.667 25.761 176.283 25.137 176.011 24.417C175.739 23.697 175.603 22.929 175.603 22.113C175.603 21.265 175.731 20.473 175.987 19.737C176.243 19.001 176.619 18.361 177.115 17.817C177.611 17.273 178.203 16.849 178.891 16.545C179.595 16.225 180.395 16.065 181.291 16.065C182.107 16.065 182.867 16.225 183.571 16.545C184.275 16.865 184.835 17.377 185.251 18.081H185.299V16.353H188.035ZM181.891 18.657C181.379 18.657 180.915 18.745 180.499 18.921C180.083 19.081 179.723 19.313 179.419 19.617C179.131 19.905 178.899 20.265 178.723 20.697C178.563 21.113 178.483 21.577 178.483 22.089C178.483 22.553 178.563 22.985 178.723 23.385C178.899 23.785 179.139 24.137 179.443 24.441C179.747 24.745 180.107 24.985 180.523 25.161C180.939 25.337 181.387 25.425 181.867 25.425C182.395 25.425 182.867 25.337 183.283 25.161C183.715 24.985 184.075 24.753 184.363 24.465C184.667 24.161 184.899 23.801 185.059 23.385C185.219 22.969 185.299 22.521 185.299 22.041C185.299 21.033 184.995 20.217 184.387 19.593C183.779 18.969 182.947 18.657 181.891 18.657Z" fill="black"/>
<g clip-path="url(#clip0)">
<path d="M8.75252 10.0031V35.625C8.75252 38.0369 10.7156 40 13.1275 40H26.8725C29.2844 40 31.2475 38.0369 31.2475 35.625V10.0031C31.2475 7.805 29.615 5.985 27.5 5.68062V5C27.8456 5 28.125 4.72062 28.125 4.375V0.625C28.125 0.279375 27.8456 0 27.5 0H12.5C12.1544 0 11.875 0.279375 11.875 0.625V4.375C11.875 4.72062 12.1544 5 12.5 5V5.68125C10.385 5.98563 8.75252 7.805 8.75252 10.0031ZM13.125 1.25H26.875V3.75H13.125V1.25ZM29.3681 37.4863C29.3581 37.1494 29.0856 36.8787 28.7469 36.8787H28.74C28.395 36.8787 28.1188 37.1581 28.1188 37.5037C28.1188 37.8425 28.3919 38.115 28.7281 38.125C28.2081 38.5125 27.5694 38.75 26.8725 38.75H13.1275C11.4044 38.75 10.0025 37.3481 10.0025 35.625V11.2481H29.9975V35.625C29.9975 36.3244 29.7581 36.9644 29.3681 37.4863ZM29.9969 9.99813H10.0031C10.0056 8.27938 11.405 6.88125 13.125 6.88125H26.875C26.8756 6.88125 26.8763 6.88062 26.8769 6.88062C28.5963 6.88188 29.9944 8.27938 29.9969 9.99813ZM26.25 5.63125H13.75V5.00125H26.25V5.63125Z" fill="#BD0707"/>
<path d="M26.25 16.2495H13.75C13.4044 16.2495 13.125 16.5289 13.125 16.8745V30.6295C13.125 30.9751 13.4044 31.2545 13.75 31.2545H26.25C26.5956 31.2545 26.875 30.9751 26.875 30.6295V16.8745C26.875 16.5289 26.5956 16.2495 26.25 16.2495ZM25.625 30.0045H14.375V17.4995H25.625V30.0045Z" fill="#BD0707"/>
<path d="M11.2469 34.3787H11.24C10.895 34.3787 10.6188 34.658 10.6188 35.0037C10.6188 35.3493 10.9013 35.6287 11.2469 35.6287C11.5919 35.6287 11.8719 35.3493 11.8719 35.0037C11.8719 34.658 11.5919 34.3787 11.2469 34.3787Z" fill="#BD0707"/>
<path d="M13.7469 36.8787H13.74C13.395 36.8787 13.1188 37.158 13.1188 37.5037C13.1188 37.8493 13.4013 38.1287 13.7469 38.1287C14.0919 38.1287 14.3719 37.8493 14.3719 37.5037C14.3719 37.158 14.0919 36.8787 13.7469 36.8787Z" fill="#BD0707"/>
<path d="M11.2469 29.3787H11.24C10.895 29.3787 10.6188 29.658 10.6188 30.0037C10.6188 30.3493 10.9013 30.6287 11.2469 30.6287C11.5919 30.6287 11.8719 30.3493 11.8719 30.0037C11.8719 29.658 11.5919 29.3787 11.2469 29.3787Z" fill="#BD0707"/>
<path d="M13.7469 31.8787H13.74C13.395 31.8787 13.1188 32.158 13.1188 32.5037C13.1188 32.8493 13.4013 33.1287 13.7469 33.1287C14.0919 33.1287 14.3719 32.8493 14.3719 32.5037C14.3719 32.158 14.0919 31.8787 13.7469 31.8787Z" fill="#BD0707"/>
<path d="M16.2469 34.3787H16.24C15.895 34.3787 15.6188 34.658 15.6188 35.0037C15.6188 35.3493 15.9013 35.6287 16.2469 35.6287C16.5919 35.6287 16.8719 35.3493 16.8719 35.0037C16.8719 34.658 16.5919 34.3787 16.2469 34.3787Z" fill="#BD0707"/>
<path d="M18.7469 36.8787H18.74C18.395 36.8787 18.1188 37.158 18.1188 37.5037C18.1188 37.8493 18.4013 38.1287 18.7469 38.1287C19.0919 38.1287 19.3719 37.8493 19.3719 37.5037C19.3719 37.158 19.0919 36.8787 18.7469 36.8787Z" fill="#BD0707"/>
<path d="M11.2469 24.3787H11.24C10.895 24.3787 10.6188 24.658 10.6188 25.0037C10.6188 25.3493 10.9013 25.6287 11.2469 25.6287C11.5919 25.6287 11.8719 25.3493 11.8719 25.0037C11.8719 24.658 11.5919 24.3787 11.2469 24.3787Z" fill="#BD0707"/>
<path d="M18.7469 31.8787H18.74C18.395 31.8787 18.1188 32.158 18.1188 32.5037C18.1188 32.8493 18.4013 33.1287 18.7469 33.1287C19.0919 33.1287 19.3719 32.8493 19.3719 32.5037C19.3719 32.158 19.0919 31.8787 18.7469 31.8787Z" fill="#BD0707"/>
<path d="M21.2469 34.3787H21.24C20.895 34.3787 20.6188 34.658 20.6188 35.0037C20.6188 35.3493 20.9012 35.6287 21.2469 35.6287C21.5919 35.6287 21.8719 35.3493 21.8719 35.0037C21.8719 34.658 21.5919 34.3787 21.2469 34.3787Z" fill="#BD0707"/>
<path d="M23.7469 36.8787H23.74C23.395 36.8787 23.1188 37.158 23.1188 37.5037C23.1188 37.8493 23.4012 38.1287 23.7469 38.1287C24.0919 38.1287 24.3719 37.8493 24.3719 37.5037C24.3719 37.158 24.0919 36.8787 23.7469 36.8787Z" fill="#BD0707"/>
<path d="M11.2469 19.3787H11.24C10.895 19.3787 10.6188 19.658 10.6188 20.0037C10.6188 20.3493 10.9013 20.6287 11.2469 20.6287C11.5919 20.6287 11.8719 20.3493 11.8719 20.0037C11.8719 19.658 11.5919 19.3787 11.2469 19.3787Z" fill="#BD0707"/>
<path d="M23.7469 31.8787H23.74C23.395 31.8787 23.1188 32.158 23.1188 32.5037C23.1188 32.8493 23.4012 33.1287 23.7469 33.1287C24.0919 33.1287 24.3719 32.8493 24.3719 32.5037C24.3719 32.158 24.0919 31.8787 23.7469 31.8787Z" fill="#BD0707"/>
<path d="M26.2469 34.3787H26.24C25.895 34.3787 25.6188 34.658 25.6188 35.0037C25.6188 35.3493 25.9012 35.6287 26.2469 35.6287C26.5919 35.6287 26.8719 35.3493 26.8719 35.0037C26.8719 34.658 26.5919 34.3787 26.2469 34.3787Z" fill="#BD0707"/>
<path d="M11.2469 14.3787H11.24C10.895 14.3787 10.6188 14.658 10.6188 15.0037C10.6188 15.3493 10.9013 15.6287 11.2469 15.6287C11.5919 15.6287 11.8719 15.3493 11.8719 15.0037C11.8719 14.658 11.5919 14.3787 11.2469 14.3787Z" fill="#BD0707"/>
<path d="M28.7469 31.8787H28.74C28.395 31.8787 28.1188 32.158 28.1188 32.5037C28.1188 32.8493 28.4012 33.1287 28.7469 33.1287C29.0919 33.1287 29.3719 32.8493 29.3719 32.5037C29.3719 32.158 29.0919 31.8787 28.7469 31.8787Z" fill="#BD0707"/>
<path d="M13.7469 13.1287C14.0919 13.1287 14.3719 12.8493 14.3719 12.5037C14.3719 12.158 14.0919 11.8787 13.7469 11.8787H13.74C13.395 11.8787 13.1188 12.158 13.1188 12.5037C13.1188 12.8493 13.4013 13.1287 13.7469 13.1287Z" fill="#BD0707"/>
<path d="M16.2469 15.6287C16.5919 15.6287 16.8719 15.3493 16.8719 15.0037C16.8719 14.658 16.5919 14.3787 16.2469 14.3787H16.24C15.895 14.3787 15.6188 14.658 15.6188 15.0037C15.6188 15.3493 15.9013 15.6287 16.2469 15.6287Z" fill="#BD0707"/>
<path d="M28.7469 26.8787H28.74C28.395 26.8787 28.1188 27.158 28.1188 27.5037C28.1188 27.8493 28.4012 28.1287 28.7469 28.1287C29.0919 28.1287 29.3719 27.8493 29.3719 27.5037C29.3719 27.158 29.0919 26.8787 28.7469 26.8787Z" fill="#BD0707"/>
<path d="M18.7469 13.1287C19.0919 13.1287 19.3719 12.8493 19.3719 12.5037C19.3719 12.158 19.0919 11.8787 18.7469 11.8787H18.74C18.395 11.8787 18.1188 12.158 18.1188 12.5037C18.1188 12.8493 18.4013 13.1287 18.7469 13.1287Z" fill="#BD0707"/>
<path d="M21.2469 15.6287C21.5919 15.6287 21.8719 15.3493 21.8719 15.0037C21.8719 14.658 21.5919 14.3787 21.2469 14.3787H21.24C20.895 14.3787 20.6188 14.658 20.6188 15.0037C20.6188 15.3493 20.9012 15.6287 21.2469 15.6287Z" fill="#BD0707"/>
<path d="M28.7469 21.8787H28.74C28.395 21.8787 28.1188 22.158 28.1188 22.5037C28.1188 22.8493 28.4012 23.1287 28.7469 23.1287C29.0919 23.1287 29.3719 22.8493 29.3719 22.5037C29.3719 22.158 29.0919 21.8787 28.7469 21.8787Z" fill="#BD0707"/>
<path d="M23.7469 13.1287C24.0919 13.1287 24.3719 12.8493 24.3719 12.5037C24.3719 12.158 24.0919 11.8787 23.7469 11.8787H23.74C23.395 11.8787 23.1188 12.158 23.1188 12.5037C23.1188 12.8493 23.4012 13.1287 23.7469 13.1287Z" fill="#BD0707"/>
<path d="M26.2469 15.6287C26.5919 15.6287 26.8719 15.3493 26.8719 15.0037C26.8719 14.658 26.5919 14.3787 26.2469 14.3787H26.24C25.895 14.3787 25.6188 14.658 25.6188 15.0037C25.6188 15.3493 25.9012 15.6287 26.2469 15.6287Z" fill="#BD0707"/>
<path d="M28.7469 16.8787H28.74C28.395 16.8787 28.1188 17.158 28.1188 17.5037C28.1188 17.8493 28.4012 18.1287 28.7469 18.1287C29.0919 18.1287 29.3719 17.8493 29.3719 17.5037C29.3719 17.158 29.0919 16.8787 28.7469 16.8787Z" fill="#BD0707"/>
<path d="M28.7469 11.8787H28.74C28.395 11.8787 28.1188 12.158 28.1188 12.5037C28.1188 12.8493 28.4012 13.1287 28.7469 13.1287C29.0919 13.1287 29.3719 12.8493 29.3719 12.5037C29.3719 12.158 29.0919 11.8787 28.7469 11.8787Z" fill="#BD0707"/>
<path d="M15.6638 22.72C15.6713 22.74 15.6788 22.7581 15.6881 22.7769C15.6963 22.7931 15.7006 22.8106 15.7094 22.8262L19.4631 29.075C19.5763 29.2631 19.78 29.3781 19.9988 29.3781C20.2188 29.3781 20.4219 29.2625 20.5344 29.075L24.2831 22.8262C24.2944 22.8075 24.2994 22.7869 24.3088 22.7668C24.3144 22.7544 24.32 22.7431 24.3244 22.73C24.3644 22.6269 24.3763 22.5175 24.36 22.4094C24.3163 21.2675 23.5081 20.3225 22.43 20.0737C22.1775 18.9612 21.1844 18.1262 19.9956 18.1262C18.8069 18.1262 17.815 18.9606 17.5619 20.0731C16.4519 20.3275 15.6194 21.3187 15.6194 22.5056C15.6194 22.5062 15.62 22.5075 15.62 22.5081C15.6213 22.5806 15.6381 22.6512 15.6638 22.72ZM19.9981 27.5387L17.35 23.1294H19.9894C19.9919 23.1294 19.9931 23.1306 19.9956 23.1306C19.9981 23.1306 19.9994 23.1294 20.0019 23.1294H22.645L19.9981 27.5387ZM22.9456 21.8794H20.795C21.0125 21.5081 21.41 21.2556 21.8706 21.2556C22.3313 21.2556 22.7281 21.5081 22.9456 21.8794ZM19.9963 19.3762C20.5075 19.3762 20.9469 19.6856 21.1406 20.1268C20.6906 20.265 20.2975 20.5231 19.995 20.8693C19.6931 20.5237 19.3006 20.2662 18.8519 20.1275C19.045 19.6862 19.485 19.3762 19.9963 19.3762ZM18.12 21.2556C18.58 21.2556 18.9781 21.5081 19.1956 21.8794H17.045C17.2619 21.5081 17.66 21.2556 18.12 21.2556Z" fill="#BD0707"/>
</g>
<defs>
<clipPath id="clip0">
<rect width="40" height="40" fill="white"/>
</clipPath>
</defs>
</svg>
