<svg width="216" height="122" viewBox="0 0 216 122" fill="none" xmlns="http://www.w3.org/2000/svg">
<path d="M22.724 88.256H24.146L29.564 101H27.8L26.504 97.868H20.132L18.818 101H17.108L22.724 88.256ZM23.408 90.2H23.372L20.726 96.464H25.928L23.408 90.2ZM35.6138 93.764H33.1298V97.976C33.1298 98.252 33.1358 98.51 33.1478 98.75C33.1598 98.978 33.2078 99.182 33.2918 99.362C33.3758 99.53 33.5018 99.668 33.6698 99.776C33.8378 99.872 34.0778 99.92 34.3898 99.92C34.5938 99.92 34.8038 99.896 35.0198 99.848C35.2358 99.8 35.4398 99.728 35.6318 99.632L35.6858 100.91C35.4458 101.018 35.1758 101.096 34.8758 101.144C34.5878 101.192 34.3118 101.216 34.0478 101.216C33.5438 101.216 33.1418 101.15 32.8418 101.018C32.5418 100.886 32.3078 100.7 32.1398 100.46C31.9718 100.22 31.8578 99.926 31.7978 99.578C31.7498 99.218 31.7258 98.822 31.7258 98.39V93.764H29.8898V92.576H31.7258V90.182H33.1298V92.576H35.6138V93.764ZM41.9595 93.764H39.4755V97.976C39.4755 98.252 39.4815 98.51 39.4935 98.75C39.5055 98.978 39.5535 99.182 39.6375 99.362C39.7215 99.53 39.8475 99.668 40.0155 99.776C40.1835 99.872 40.4235 99.92 40.7355 99.92C40.9395 99.92 41.1495 99.896 41.3655 99.848C41.5815 99.8 41.7855 99.728 41.9775 99.632L42.0315 100.91C41.7915 101.018 41.5215 101.096 41.2215 101.144C40.9335 101.192 40.6575 101.216 40.3935 101.216C39.8895 101.216 39.4875 101.15 39.1875 101.018C38.8875 100.886 38.6535 100.7 38.4855 100.46C38.3175 100.22 38.2035 99.926 38.1435 99.578C38.0955 99.218 38.0715 98.822 38.0715 98.39V93.764H36.2355V92.576H38.0715V90.182H39.4755V92.576H41.9595V93.764ZM43.5717 93.656C44.0037 93.212 44.5137 92.888 45.1017 92.684C45.7017 92.468 46.3077 92.36 46.9197 92.36C48.1677 92.36 49.0677 92.654 49.6197 93.242C50.1717 93.83 50.4477 94.724 50.4477 95.924V99.542C50.4477 99.782 50.4597 100.034 50.4837 100.298C50.5077 100.55 50.5377 100.784 50.5737 101H49.2237C49.1757 100.808 49.1457 100.598 49.1337 100.37C49.1337 100.13 49.1337 99.92 49.1337 99.74H49.0977C48.8217 100.172 48.4497 100.526 47.9817 100.802C47.5257 101.078 46.9737 101.216 46.3257 101.216C45.8937 101.216 45.4857 101.162 45.1017 101.054C44.7297 100.946 44.3997 100.79 44.1117 100.586C43.8357 100.37 43.6137 100.106 43.4457 99.794C43.2777 99.482 43.1937 99.122 43.1937 98.714C43.1937 98.018 43.3737 97.472 43.7337 97.076C44.0937 96.68 44.5377 96.386 45.0657 96.194C45.6057 96.002 46.1817 95.882 46.7937 95.834C47.4177 95.786 47.9877 95.762 48.5037 95.762H49.0437V95.51C49.0437 94.898 48.8577 94.436 48.4857 94.124C48.1257 93.812 47.6157 93.656 46.9557 93.656C46.4997 93.656 46.0497 93.734 45.6057 93.89C45.1737 94.034 44.7897 94.262 44.4537 94.574L43.5717 93.656ZM47.6397 96.95C46.7397 96.95 46.0257 97.076 45.4977 97.328C44.9697 97.58 44.7057 97.994 44.7057 98.57C44.7057 99.098 44.8797 99.476 45.2277 99.704C45.5877 99.92 46.0317 100.028 46.5597 100.028C46.9677 100.028 47.3217 99.962 47.6217 99.83C47.9337 99.686 48.1917 99.5 48.3957 99.272C48.5997 99.044 48.7557 98.78 48.8637 98.48C48.9717 98.168 49.0317 97.838 49.0437 97.49V96.95H47.6397ZM59.0076 94.682C58.7076 94.322 58.3836 94.064 58.0356 93.908C57.6876 93.74 57.3036 93.656 56.8836 93.656C56.4156 93.656 56.0016 93.74 55.6416 93.908C55.2816 94.064 54.9816 94.286 54.7416 94.574C54.5136 94.862 54.3396 95.198 54.2196 95.582C54.0996 95.954 54.0396 96.356 54.0396 96.788C54.0396 97.22 54.1056 97.628 54.2376 98.012C54.3816 98.384 54.5736 98.714 54.8136 99.002C55.0656 99.29 55.3656 99.518 55.7136 99.686C56.0616 99.842 56.4516 99.92 56.8836 99.92C57.8076 99.92 58.5216 99.572 59.0256 98.876L60.0696 99.866C59.6616 100.334 59.1816 100.676 58.6296 100.892C58.0776 101.108 57.4956 101.216 56.8836 101.216C56.2356 101.216 55.6416 101.108 55.1016 100.892C54.5616 100.676 54.0996 100.37 53.7156 99.974C53.3436 99.578 53.0496 99.11 52.8336 98.57C52.6296 98.03 52.5276 97.436 52.5276 96.788C52.5276 96.152 52.6296 95.564 52.8336 95.024C53.0496 94.484 53.3496 94.016 53.7336 93.62C54.1176 93.224 54.5736 92.918 55.1016 92.702C55.6416 92.474 56.2356 92.36 56.8836 92.36C57.5076 92.36 58.0956 92.468 58.6476 92.684C59.2116 92.9 59.7036 93.236 60.1236 93.692L59.0076 94.682ZM61.6972 87.392H63.1012V93.746H63.1372C63.2332 93.578 63.3652 93.416 63.5332 93.26C63.7012 93.092 63.8992 92.942 64.1272 92.81C64.3672 92.678 64.6312 92.57 64.9192 92.486C65.2072 92.402 65.5132 92.36 65.8372 92.36C66.3892 92.36 66.8632 92.444 67.2592 92.612C67.6672 92.78 68.0032 93.014 68.2672 93.314C68.5312 93.614 68.7232 93.98 68.8432 94.412C68.9752 94.832 69.0412 95.294 69.0412 95.798V101H67.6372V95.942C67.6372 95.234 67.4812 94.676 67.1692 94.268C66.8572 93.86 66.3712 93.656 65.7112 93.656C65.2552 93.656 64.8592 93.734 64.5232 93.89C64.1992 94.046 63.9292 94.268 63.7132 94.556C63.5092 94.844 63.3532 95.186 63.2452 95.582C63.1492 95.978 63.1012 96.416 63.1012 96.896V101H61.6972V87.392ZM79.2232 99.47C78.7192 100.118 78.1672 100.574 77.5672 100.838C76.9672 101.09 76.2712 101.216 75.4792 101.216C74.8192 101.216 74.2252 101.102 73.6972 100.874C73.1692 100.634 72.7192 100.316 72.3472 99.92C71.9872 99.524 71.7052 99.056 71.5012 98.516C71.3092 97.976 71.2132 97.4 71.2132 96.788C71.2132 96.14 71.3212 95.546 71.5372 95.006C71.7532 94.454 72.0532 93.986 72.4372 93.602C72.8212 93.206 73.2772 92.9 73.8052 92.684C74.3332 92.468 74.9092 92.36 75.5332 92.36C76.1212 92.36 76.6612 92.462 77.1532 92.666C77.6452 92.858 78.0652 93.146 78.4132 93.53C78.7732 93.902 79.0492 94.364 79.2412 94.916C79.4332 95.456 79.5292 96.074 79.5292 96.77V97.22H72.7252C72.7492 97.58 72.8332 97.928 72.9772 98.264C73.1332 98.588 73.3312 98.876 73.5712 99.128C73.8112 99.368 74.0932 99.56 74.4172 99.704C74.7412 99.848 75.0952 99.92 75.4792 99.92C76.0912 99.92 76.6072 99.812 77.0272 99.596C77.4472 99.38 77.8252 99.062 78.1612 98.642L79.2232 99.47ZM78.0172 96.032C77.9932 95.312 77.7592 94.736 77.3152 94.304C76.8712 93.872 76.2592 93.656 75.4792 93.656C74.6992 93.656 74.0692 93.872 73.5892 94.304C73.1092 94.736 72.8212 95.312 72.7252 96.032H78.0172ZM86.2249 96.788C86.2249 96.128 86.3389 95.528 86.5669 94.988C86.7949 94.448 87.1069 93.986 87.5029 93.602C87.8989 93.206 88.3729 92.9 88.9249 92.684C89.4769 92.468 90.0769 92.36 90.7249 92.36C91.3729 92.36 91.9729 92.468 92.5249 92.684C93.0769 92.9 93.5509 93.206 93.9469 93.602C94.3429 93.986 94.6549 94.448 94.8829 94.988C95.1109 95.528 95.2249 96.128 95.2249 96.788C95.2249 97.448 95.1109 98.048 94.8829 98.588C94.6549 99.128 94.3429 99.596 93.9469 99.992C93.5509 100.376 93.0769 100.676 92.5249 100.892C91.9729 101.108 91.3729 101.216 90.7249 101.216C90.0769 101.216 89.4769 101.108 88.9249 100.892C88.3729 100.676 87.8989 100.376 87.5029 99.992C87.1069 99.596 86.7949 99.128 86.5669 98.588C86.3389 98.048 86.2249 97.448 86.2249 96.788ZM87.7369 96.788C87.7369 97.232 87.8029 97.646 87.9349 98.03C88.0789 98.402 88.2829 98.732 88.5469 99.02C88.8109 99.296 89.1229 99.518 89.4829 99.686C89.8549 99.842 90.2689 99.92 90.7249 99.92C91.1809 99.92 91.5889 99.842 91.9489 99.686C92.3209 99.518 92.6389 99.296 92.9029 99.02C93.1669 98.732 93.3649 98.402 93.4969 98.03C93.6409 97.646 93.7129 97.232 93.7129 96.788C93.7129 96.344 93.6409 95.936 93.4969 95.564C93.3649 95.18 93.1669 94.85 92.9029 94.574C92.6389 94.286 92.3209 94.064 91.9489 93.908C91.5889 93.74 91.1809 93.656 90.7249 93.656C90.2689 93.656 89.8549 93.74 89.4829 93.908C89.1229 94.064 88.8109 94.286 88.5469 94.574C88.2829 94.85 88.0789 95.18 87.9349 95.564C87.8029 95.936 87.7369 96.344 87.7369 96.788ZM98.1184 93.764H96.2824V92.576H98.1184V90.686C98.1184 90.17 98.1664 89.702 98.2624 89.282C98.3584 88.85 98.5204 88.478 98.7484 88.166C98.9884 87.854 99.3004 87.614 99.6844 87.446C100.068 87.266 100.542 87.176 101.106 87.176C101.286 87.176 101.478 87.194 101.682 87.23C101.886 87.266 102.054 87.32 102.186 87.392L101.988 88.652C101.652 88.532 101.334 88.472 101.034 88.472C100.674 88.472 100.392 88.538 100.188 88.67C99.9844 88.79 99.8284 88.964 99.7204 89.192C99.6244 89.408 99.5644 89.672 99.5404 89.984C99.5284 90.296 99.5224 90.632 99.5224 90.992V92.576H101.574V93.764H99.5224V101H98.1184V93.764ZM116.888 89.66H112.676V101H111.164V89.66H106.952V88.256H116.888V89.66ZM116.77 94.574C116.77 94.19 116.758 93.83 116.734 93.494C116.71 93.158 116.698 92.852 116.698 92.576H118.03C118.03 92.804 118.036 93.032 118.048 93.26C118.06 93.488 118.066 93.722 118.066 93.962H118.102C118.198 93.758 118.33 93.56 118.498 93.368C118.678 93.176 118.888 93.008 119.128 92.864C119.368 92.708 119.638 92.588 119.938 92.504C120.238 92.408 120.562 92.36 120.91 92.36C121.006 92.36 121.102 92.366 121.198 92.378C121.294 92.39 121.39 92.414 121.486 92.45L121.396 93.872C121.156 93.8 120.904 93.764 120.64 93.764C119.776 93.764 119.146 94.046 118.75 94.61C118.366 95.162 118.174 95.924 118.174 96.896V101H116.77V94.574ZM122.99 93.656C123.422 93.212 123.932 92.888 124.52 92.684C125.12 92.468 125.726 92.36 126.338 92.36C127.586 92.36 128.486 92.654 129.038 93.242C129.59 93.83 129.866 94.724 129.866 95.924V99.542C129.866 99.782 129.878 100.034 129.902 100.298C129.926 100.55 129.956 100.784 129.992 101H128.642C128.594 100.808 128.564 100.598 128.552 100.37C128.552 100.13 128.552 99.92 128.552 99.74H128.516C128.24 100.172 127.868 100.526 127.4 100.802C126.944 101.078 126.392 101.216 125.744 101.216C125.312 101.216 124.904 101.162 124.52 101.054C124.148 100.946 123.818 100.79 123.53 100.586C123.254 100.37 123.032 100.106 122.864 99.794C122.696 99.482 122.612 99.122 122.612 98.714C122.612 98.018 122.792 97.472 123.152 97.076C123.512 96.68 123.956 96.386 124.484 96.194C125.024 96.002 125.6 95.882 126.212 95.834C126.836 95.786 127.406 95.762 127.922 95.762H128.462V95.51C128.462 94.898 128.276 94.436 127.904 94.124C127.544 93.812 127.034 93.656 126.374 93.656C125.918 93.656 125.468 93.734 125.024 93.89C124.592 94.034 124.208 94.262 123.872 94.574L122.99 93.656ZM127.058 96.95C126.158 96.95 125.444 97.076 124.916 97.328C124.388 97.58 124.124 97.994 124.124 98.57C124.124 99.098 124.298 99.476 124.646 99.704C125.006 99.92 125.45 100.028 125.978 100.028C126.386 100.028 126.74 99.962 127.04 99.83C127.352 99.686 127.61 99.5 127.814 99.272C128.018 99.044 128.174 98.78 128.282 98.48C128.39 98.168 128.45 97.838 128.462 97.49V96.95H127.058ZM132.432 94.574C132.432 94.19 132.42 93.83 132.396 93.494C132.372 93.158 132.36 92.852 132.36 92.576H133.692C133.692 92.804 133.698 93.032 133.71 93.26C133.722 93.488 133.728 93.722 133.728 93.962H133.764C133.86 93.758 133.992 93.56 134.16 93.368C134.34 93.176 134.55 93.008 134.79 92.864C135.03 92.708 135.3 92.588 135.6 92.504C135.9 92.408 136.224 92.36 136.572 92.36C137.124 92.36 137.598 92.444 137.994 92.612C138.402 92.78 138.738 93.014 139.002 93.314C139.266 93.614 139.458 93.98 139.578 94.412C139.71 94.832 139.776 95.294 139.776 95.798V101H138.372V95.942C138.372 95.234 138.216 94.676 137.904 94.268C137.592 93.86 137.106 93.656 136.446 93.656C135.99 93.656 135.594 93.734 135.258 93.89C134.934 94.046 134.664 94.268 134.448 94.556C134.244 94.844 134.088 95.186 133.98 95.582C133.884 95.978 133.836 96.416 133.836 96.896V101H132.432V94.574ZM142.614 98.786C142.89 99.134 143.19 99.41 143.514 99.614C143.85 99.818 144.27 99.92 144.774 99.92C144.99 99.92 145.206 99.896 145.422 99.848C145.65 99.8 145.854 99.722 146.034 99.614C146.214 99.506 146.358 99.374 146.466 99.218C146.574 99.05 146.628 98.852 146.628 98.624C146.628 98.396 146.574 98.21 146.466 98.066C146.37 97.922 146.238 97.802 146.07 97.706C145.902 97.598 145.71 97.514 145.494 97.454C145.278 97.394 145.056 97.34 144.828 97.292C144.432 97.208 144.054 97.112 143.694 97.004C143.334 96.896 143.016 96.758 142.74 96.59C142.476 96.41 142.26 96.182 142.092 95.906C141.936 95.63 141.858 95.276 141.858 94.844C141.858 94.436 141.948 94.076 142.128 93.764C142.308 93.452 142.548 93.194 142.848 92.99C143.148 92.786 143.484 92.63 143.856 92.522C144.228 92.414 144.612 92.36 145.008 92.36C145.608 92.36 146.16 92.48 146.664 92.72C147.18 92.96 147.582 93.35 147.87 93.89L146.7 94.664C146.52 94.364 146.28 94.124 145.98 93.944C145.692 93.752 145.338 93.656 144.918 93.656C144.726 93.656 144.528 93.68 144.324 93.728C144.132 93.776 143.958 93.848 143.802 93.944C143.646 94.04 143.514 94.166 143.406 94.322C143.31 94.466 143.262 94.634 143.262 94.826C143.262 95.006 143.316 95.162 143.424 95.294C143.544 95.414 143.7 95.522 143.892 95.618C144.096 95.714 144.324 95.798 144.576 95.87C144.84 95.942 145.11 96.002 145.386 96.05C145.758 96.122 146.112 96.218 146.448 96.338C146.784 96.446 147.078 96.596 147.33 96.788C147.582 96.98 147.78 97.22 147.924 97.508C148.068 97.796 148.14 98.15 148.14 98.57C148.14 99.05 148.044 99.458 147.852 99.794C147.66 100.13 147.402 100.406 147.078 100.622C146.766 100.826 146.406 100.976 145.998 101.072C145.602 101.168 145.194 101.216 144.774 101.216C144.054 101.216 143.43 101.108 142.902 100.892C142.386 100.664 141.918 100.25 141.498 99.65L142.614 98.786ZM149.99 93.656C150.422 93.212 150.932 92.888 151.52 92.684C152.12 92.468 152.726 92.36 153.338 92.36C154.586 92.36 155.486 92.654 156.038 93.242C156.59 93.83 156.866 94.724 156.866 95.924V99.542C156.866 99.782 156.878 100.034 156.902 100.298C156.926 100.55 156.956 100.784 156.992 101H155.642C155.594 100.808 155.564 100.598 155.552 100.37C155.552 100.13 155.552 99.92 155.552 99.74H155.516C155.24 100.172 154.868 100.526 154.4 100.802C153.944 101.078 153.392 101.216 152.744 101.216C152.312 101.216 151.904 101.162 151.52 101.054C151.148 100.946 150.818 100.79 150.53 100.586C150.254 100.37 150.032 100.106 149.864 99.794C149.696 99.482 149.612 99.122 149.612 98.714C149.612 98.018 149.792 97.472 150.152 97.076C150.512 96.68 150.956 96.386 151.484 96.194C152.024 96.002 152.6 95.882 153.212 95.834C153.836 95.786 154.406 95.762 154.922 95.762H155.462V95.51C155.462 94.898 155.276 94.436 154.904 94.124C154.544 93.812 154.034 93.656 153.374 93.656C152.918 93.656 152.468 93.734 152.024 93.89C151.592 94.034 151.208 94.262 150.872 94.574L149.99 93.656ZM154.058 96.95C153.158 96.95 152.444 97.076 151.916 97.328C151.388 97.58 151.124 97.994 151.124 98.57C151.124 99.098 151.298 99.476 151.646 99.704C152.006 99.92 152.45 100.028 152.978 100.028C153.386 100.028 153.74 99.962 154.04 99.83C154.352 99.686 154.61 99.5 154.814 99.272C155.018 99.044 155.174 98.78 155.282 98.48C155.39 98.168 155.45 97.838 155.462 97.49V96.95H154.058ZM165.426 94.682C165.126 94.322 164.802 94.064 164.454 93.908C164.106 93.74 163.722 93.656 163.302 93.656C162.834 93.656 162.42 93.74 162.06 93.908C161.7 94.064 161.4 94.286 161.16 94.574C160.932 94.862 160.758 95.198 160.638 95.582C160.518 95.954 160.458 96.356 160.458 96.788C160.458 97.22 160.524 97.628 160.656 98.012C160.8 98.384 160.992 98.714 161.232 99.002C161.484 99.29 161.784 99.518 162.132 99.686C162.48 99.842 162.87 99.92 163.302 99.92C164.226 99.92 164.94 99.572 165.444 98.876L166.488 99.866C166.08 100.334 165.6 100.676 165.048 100.892C164.496 101.108 163.914 101.216 163.302 101.216C162.654 101.216 162.06 101.108 161.52 100.892C160.98 100.676 160.518 100.37 160.134 99.974C159.762 99.578 159.468 99.11 159.252 98.57C159.048 98.03 158.946 97.436 158.946 96.788C158.946 96.152 159.048 95.564 159.252 95.024C159.468 94.484 159.768 94.016 160.152 93.62C160.536 93.224 160.992 92.918 161.52 92.702C162.06 92.474 162.654 92.36 163.302 92.36C163.926 92.36 164.514 92.468 165.066 92.684C165.63 92.9 166.122 93.236 166.542 93.692L165.426 94.682ZM172.723 93.764H170.239V97.976C170.239 98.252 170.245 98.51 170.257 98.75C170.269 98.978 170.317 99.182 170.401 99.362C170.485 99.53 170.611 99.668 170.779 99.776C170.947 99.872 171.187 99.92 171.499 99.92C171.703 99.92 171.913 99.896 172.129 99.848C172.345 99.8 172.549 99.728 172.741 99.632L172.795 100.91C172.555 101.018 172.285 101.096 171.985 101.144C171.697 101.192 171.421 101.216 171.157 101.216C170.653 101.216 170.251 101.15 169.951 101.018C169.651 100.886 169.417 100.7 169.249 100.46C169.081 100.22 168.967 99.926 168.907 99.578C168.859 99.218 168.835 98.822 168.835 98.39V93.764H166.999V92.576H168.835V90.182H170.239V92.576H172.723V93.764ZM174.587 92.576H175.991V101H174.587V92.576ZM174.263 89.282C174.263 89.006 174.359 88.766 174.551 88.562C174.755 88.358 175.001 88.256 175.289 88.256C175.577 88.256 175.817 88.358 176.009 88.562C176.213 88.766 176.315 89.006 176.315 89.282C176.315 89.582 176.219 89.828 176.027 90.02C175.835 90.212 175.589 90.308 175.289 90.308C174.989 90.308 174.743 90.212 174.551 90.02C174.359 89.828 174.263 89.582 174.263 89.282ZM178.299 96.788C178.299 96.128 178.413 95.528 178.641 94.988C178.869 94.448 179.181 93.986 179.577 93.602C179.973 93.206 180.447 92.9 180.999 92.684C181.551 92.468 182.151 92.36 182.799 92.36C183.447 92.36 184.047 92.468 184.599 92.684C185.151 92.9 185.625 93.206 186.021 93.602C186.417 93.986 186.729 94.448 186.957 94.988C187.185 95.528 187.299 96.128 187.299 96.788C187.299 97.448 187.185 98.048 186.957 98.588C186.729 99.128 186.417 99.596 186.021 99.992C185.625 100.376 185.151 100.676 184.599 100.892C184.047 101.108 183.447 101.216 182.799 101.216C182.151 101.216 181.551 101.108 180.999 100.892C180.447 100.676 179.973 100.376 179.577 99.992C179.181 99.596 178.869 99.128 178.641 98.588C178.413 98.048 178.299 97.448 178.299 96.788ZM179.811 96.788C179.811 97.232 179.877 97.646 180.009 98.03C180.153 98.402 180.357 98.732 180.621 99.02C180.885 99.296 181.197 99.518 181.557 99.686C181.929 99.842 182.343 99.92 182.799 99.92C183.255 99.92 183.663 99.842 184.023 99.686C184.395 99.518 184.713 99.296 184.977 99.02C185.241 98.732 185.439 98.402 185.571 98.03C185.715 97.646 185.787 97.232 185.787 96.788C185.787 96.344 185.715 95.936 185.571 95.564C185.439 95.18 185.241 94.85 184.977 94.574C184.713 94.286 184.395 94.064 184.023 93.908C183.663 93.74 183.255 93.656 182.799 93.656C182.343 93.656 181.929 93.74 181.557 93.908C181.197 94.064 180.885 94.286 180.621 94.574C180.357 94.85 180.153 95.18 180.009 95.564C179.877 95.936 179.811 96.344 179.811 96.788ZM189.473 94.574C189.473 94.19 189.461 93.83 189.437 93.494C189.413 93.158 189.401 92.852 189.401 92.576H190.733C190.733 92.804 190.739 93.032 190.751 93.26C190.763 93.488 190.769 93.722 190.769 93.962H190.805C190.901 93.758 191.033 93.56 191.201 93.368C191.381 93.176 191.591 93.008 191.831 92.864C192.071 92.708 192.341 92.588 192.641 92.504C192.941 92.408 193.265 92.36 193.613 92.36C194.165 92.36 194.639 92.444 195.035 92.612C195.443 92.78 195.779 93.014 196.043 93.314C196.307 93.614 196.499 93.98 196.619 94.412C196.751 94.832 196.817 95.294 196.817 95.798V101H195.413V95.942C195.413 95.234 195.257 94.676 194.945 94.268C194.633 93.86 194.147 93.656 193.487 93.656C193.031 93.656 192.635 93.734 192.299 93.89C191.975 94.046 191.705 94.268 191.489 94.556C191.285 94.844 191.129 95.186 191.021 95.582C190.925 95.978 190.877 96.416 190.877 96.896V101H189.473V94.574Z" fill="#683232" fill-opacity="0.5"/>
<rect x="1" y="1" width="214" height="120" rx="4" fill="#E0C8C8" fill-opacity="0.25" stroke="#BD0707" stroke-width="2"/>
<g clip-path="url(#clip0)">
<path d="M105.396 38.0833C105.396 44.1143 110.302 49.0208 116.333 49.0208C122.364 49.0208 127.271 44.1143 127.271 38.0833C127.271 32.0524 122.364 27.1458 116.333 27.1458C110.302 27.1458 105.396 32.0524 105.396 38.0833ZM125.604 38.0833C125.604 43.1953 121.445 47.3542 116.333 47.3542C111.221 47.3542 107.063 43.1953 107.063 38.0833C107.063 32.9714 111.221 28.8125 116.333 28.8125C121.445 28.8125 125.604 32.9714 125.604 38.0833ZM116.333 32.4583C116.794 32.4583 117.167 32.8315 117.167 33.2917V33.6433C118.137 33.9874 118.833 34.9136 118.833 36C118.833 36.4602 118.46 36.8333 118 36.8333C117.54 36.8333 117.167 36.4602 117.167 36C117.167 35.5405 116.793 35.1667 116.333 35.1667C115.874 35.1667 115.5 35.5405 115.5 36V36.3372C115.5 36.7036 115.735 37.0232 116.085 37.1326L117.079 37.4432C118.128 37.7712 118.833 38.7302 118.833 39.8295V40.1667C118.833 41.3666 117.983 42.3715 116.854 42.6118V42.875C116.854 43.3352 116.481 43.7083 116.021 43.7083C115.561 43.7083 115.188 43.3352 115.188 42.875V42.3875C114.384 41.9713 113.833 41.1323 113.833 40.1667C113.833 39.7065 114.206 39.3333 114.667 39.3333C115.127 39.3333 115.5 39.7065 115.5 40.1667C115.5 40.6261 115.874 41 116.333 41C116.793 41 117.167 40.6261 117.167 40.1667V39.8295C117.167 39.463 116.932 39.1434 116.582 39.0341L115.588 38.7234C114.538 38.3954 113.833 37.4365 113.833 36.3372V36C113.833 34.9136 114.53 33.9874 115.5 33.6433V33.2917C115.5 32.8315 115.873 32.4583 116.333 32.4583ZM129.875 54.5417V65.1667C129.875 68.3832 127.258 71 124.042 71H91.9583C88.7419 71 86.125 68.3832 86.125 65.1667V24.3333C86.125 22.4953 87.6203 21 89.4583 21H116.542C118.38 21 119.875 22.4953 119.875 24.3333C119.875 24.7935 119.502 25.1667 119.042 25.1667C118.581 25.1667 118.208 24.7935 118.208 24.3333C118.208 23.4144 117.461 22.6667 116.542 22.6667H89.4583C88.5394 22.6667 87.7917 23.4144 87.7917 24.3333V65.1667C87.7917 67.4642 89.6608 69.3333 91.9583 69.3333H119.965C118.882 68.2738 118.208 66.7977 118.208 65.1667V52.1458C118.208 51.6856 118.581 51.3125 119.042 51.3125C119.502 51.3125 119.875 51.6856 119.875 52.1458V65.1667C119.875 67.4642 121.744 69.3333 124.042 69.3333C126.339 69.3333 128.208 67.4642 128.208 65.1667V54.5417C128.208 53.6227 127.461 52.875 126.542 52.875H123C122.54 52.875 122.167 52.5019 122.167 52.0417C122.167 51.5815 122.54 51.2083 123 51.2083H126.542C128.38 51.2083 129.875 52.7036 129.875 54.5417ZM93.4167 43.3958C93.4167 42.9356 93.7898 42.5625 94.25 42.5625H101.333C101.794 42.5625 102.167 42.9356 102.167 43.3958C102.167 43.856 101.794 44.2292 101.333 44.2292H94.25C93.7898 44.2292 93.4167 43.856 93.4167 43.3958ZM93.4167 34.0208C93.4167 33.5606 93.7898 33.1875 94.25 33.1875H101.333C101.794 33.1875 102.167 33.5606 102.167 34.0208C102.167 34.481 101.794 34.8542 101.333 34.8542H94.25C93.7898 34.8542 93.4167 34.481 93.4167 34.0208ZM112.583 52.7708C112.583 53.231 112.21 53.6042 111.75 53.6042H94.25C93.7898 53.6042 93.4167 53.231 93.4167 52.7708C93.4167 52.3106 93.7898 51.9375 94.25 51.9375H111.75C112.21 51.9375 112.583 52.3106 112.583 52.7708ZM112.583 61.5208C112.583 61.981 112.21 62.3542 111.75 62.3542H94.25C93.7898 62.3542 93.4167 61.981 93.4167 61.5208C93.4167 61.0606 93.7898 60.6875 94.25 60.6875H111.75C112.21 60.6875 112.583 61.0606 112.583 61.5208Z" fill="#974A4A"/>
</g>
<defs>
<clipPath id="clip0">
<rect width="50" height="50" fill="white" transform="translate(83 21)"/>
</clipPath>
</defs>
</svg>
